# xmcd CD database file
#
# Track frame offsets:
#	150
#	20639
#	46063
#	78156
#	99897
#	134935
#	166936
#
# Disc length: 2821 seconds
#
# Revision: 2
# Processed by: cddbd v1.4b41PL1 Copyright (c) Steve Scherf et al.
# Submitted via: Feurio! 1.54ß - http://www.feurio.com
#
DISCID=4f0b0307
DTITLE=Bruce Springsteen - The Wild, The Innocent and The E Street Shuffle
DYEAR=1900
DGENRE=
TTITLE0="The E Street Shuffle" 
TTITLE1="4th of July, Asbury Park (Sandy)" 
TTITLE2="Kitty's Back"
TTITLE3="Wild Bill's Circus Story" 
TTITLE4="Incident on 57th Street"
TTITLE5="Rosalita (Come Out Tonight)" 
TTITLE6="New York City Serenade" 
EXTD=
EXTT0=
EXTT1=
EXTT2=
EXTT3=
EXTT4=
EXTT5=
EXTT6=
PLAYORDER=
